<?xml version="1.0" encoding="UTF-8" standalone="no"?>
<svg
   xmlns:dc="http://purl.org/dc/elements/1.1/"
   xmlns:cc="http://creativecommons.org/ns#"
   xmlns:rdf="http://www.w3.org/1999/02/22-rdf-syntax-ns#"
   xmlns:svg="http://www.w3.org/2000/svg"
   xmlns="http://www.w3.org/2000/svg"
   id="svg3810"
   version="1.1"
   viewBox="0 0 116.00471 60"
   height="60mm"
   width="116.00471mm">
  <defs
     id="defs3804" />
  <metadata
     id="metadata3807">
    <rdf:RDF>
      <cc:Work
         rdf:about="">
        <dc:format>image/svg+xml</dc:format>
        <dc:type
           rdf:resource="http://purl.org/dc/dcmitype/StillImage" />
        <dc:title></dc:title>
      </cc:Work>
    </rdf:RDF>
  </metadata>
  <g
     transform="translate(-36.491694,-65.032677)"
     id="layer1">
    <g
       id="g3953"
       transform="matrix(0.24710527,0,0,-0.24710527,36.491791,110.46944)">
      <g
         id="g3955"
         transform="scale(0.1)">
        <path
           d="m 1679.14,1310.16 c 0,6.85 3.42,10.7 10.26,10.7 h 8.99 c 6.41,0 10.27,-3.85 10.27,-10.7 v -263.57 h 128.79 c 6.84,0 10.69,-3.85 10.69,-10.69 v -5.13 c 0,-6.85 -3.85,-10.7 -10.69,-10.7 H 1689.4 c -6.84,0 -10.26,3.85 -10.26,10.7 v 279.39"
           style="fill:#7b7979;fill-opacity:1;fill-rule:nonzero;stroke:none"
           id="path3957" />
        <path
           d="m 1892.62,1310.16 c 0,6.85 3.42,10.7 10.27,10.7 h 148.47 c 6.85,0 10.7,-3.85 10.7,-10.7 v -5.13 c 0,-6.85 -3.85,-10.7 -10.7,-10.7 H 1922.14 V 1184.8 h 103.54 c 6.86,0 10.7,-3.42 10.7,-10.27 v -5.56 c 0,-6.85 -3.84,-10.7 -10.7,-10.7 h -103.54 v -111.68 h 136.93 c 6.83,0 10.69,-3.85 10.69,-10.69 v -5.13 c 0,-6.85 -3.86,-10.7 -10.69,-10.7 h -156.18 c -6.85,0 -10.27,3.85 -10.27,10.7 v 279.39"
           style="fill:#7b7979;fill-opacity:1;fill-rule:nonzero;stroke:none"
           id="path3959" />
        <path
           d="m 2256.73,1042.74 c 70.59,0 122.37,56.49 122.37,129.65 0,71.46 -51.78,125.79 -122.37,125.79 -70.18,0 -122.37,-54.33 -122.37,-125.79 0,-73.16 52.19,-129.65 122.37,-129.65 z m 0,283.26 c 88.14,0 153.18,-67.18 153.18,-153.61 0,-88.14 -65.04,-157.46 -153.18,-157.46 -87.72,0 -153.18,69.32 -153.18,157.46 0,86.43 65.46,153.61 153.18,153.61"
           style="fill:#7b7979;fill-opacity:1;fill-rule:nonzero;stroke:none"
           id="path3961" />
        <path
           d="m 2473.62,1310.16 c 0,6.85 3.43,10.7 10.27,10.7 h 10.28 c 5.55,0 9.41,-2.14 12.83,-6.84 l 148.9,-209.66 c 10.27,-14.98 24.81,-40.65 24.81,-40.65 h 0.86 c 0,0 -2.57,24.82 -2.57,40.65 v 205.8 c 0,6.85 3.85,10.7 10.7,10.7 h 8.56 c 6.84,0 10.27,-3.85 10.27,-10.7 v -279.39 c 0,-6.85 -3.43,-10.7 -10.27,-10.7 h -10.28 c -5.55,0 -9.41,2.14 -12.4,6.84 l -149.33,209.66 c -10.27,14.98 -24.81,40.65 -24.81,40.65 h -0.86 c 0,0 2.57,-24.81 2.57,-40.65 v -205.8 c 0,-6.85 -3.85,-10.7 -10.27,-10.7 h -8.99 c -6.84,0 -10.27,3.85 -10.27,10.7 v 279.39"
           style="fill:#7b7979;fill-opacity:1;fill-rule:nonzero;stroke:none"
           id="path3963" />
        <path
           d="m 2925,1042.74 c 70.59,0 122.37,56.49 122.37,129.65 0,71.46 -51.78,125.79 -122.37,125.79 -70.17,0 -122.37,-54.33 -122.37,-125.79 0,-73.16 52.2,-129.65 122.37,-129.65 z m 0,283.26 c 88.14,0 153.18,-67.18 153.18,-153.61 0,-88.14 -65.04,-157.46 -153.18,-157.46 -87.72,0 -153.18,69.32 -153.18,157.46 0,86.43 65.46,153.61 153.18,153.61"
           style="fill:#7b7979;fill-opacity:1;fill-rule:nonzero;stroke:none"
           id="path3965" />
        <path
           d="m 3242.87,1173.25 c 36.37,0 59.47,25.24 59.47,62.89 0,23.96 -11.54,43.65 -31.66,52.63 -8.55,3.85 -17.54,5.56 -39.37,5.56 h -59.89 v -121.08 z m -100.98,136.91 c 0,6.85 3.43,10.7 10.27,10.7 h 81.29 c 28.26,0 42.8,-2.99 54.78,-8.56 26.95,-12.83 44.49,-38.93 44.49,-75.3 0,-40.65 -23.1,-73.59 -56.9,-83.01 v -0.85 c 0,0 2.98,-3.85 7.7,-11.98 l 58.62,-108.68 c 3.85,-7.28 0.85,-12.41 -7.28,-12.41 h -11.12 c -5.99,0 -9.85,2.57 -12.41,7.27 l -64.19,119.38 h -75.72 v -115.95 c 0,-6.85 -3.85,-10.7 -10.27,-10.7 h -8.99 c -6.84,0 -10.27,3.85 -10.27,10.7 v 279.39"
           style="fill:#7b7979;fill-opacity:1;fill-rule:nonzero;stroke:none"
           id="path3967" />
        <path
           d="m 3402.45,1310.16 c 0,6.85 3.42,10.7 10.27,10.7 h 148.47 c 6.84,0 10.69,-3.85 10.69,-10.7 v -5.13 c 0,-6.85 -3.85,-10.7 -10.69,-10.7 H 3431.98 V 1184.8 h 103.53 c 6.85,0 10.7,-3.42 10.7,-10.27 v -5.56 c 0,-6.85 -3.85,-10.7 -10.7,-10.7 h -103.53 v -111.68 h 136.91 c 6.85,0 10.7,-3.85 10.7,-10.69 v -5.13 c 0,-6.85 -3.85,-10.7 -10.7,-10.7 h -156.17 c -6.85,0 -10.27,3.85 -10.27,10.7 v 279.39"
           style="fill:#7b7979;fill-opacity:1;fill-rule:nonzero;stroke:none"
           id="path3969" />
        <path
           d="m 1810.91,850.617 c 51.35,0 86.01,-19.679 98.84,-28.664 5.57,-4.277 6,-9.414 1.71,-14.547 l -3.85,-5.562 c -3.84,-5.567 -8.98,-6.418 -14.54,-2.574 -12.84,8.136 -41.07,23.535 -81.3,23.535 -72.73,0 -121.94,-56.047 -121.94,-127.078 0,-73.586 50.92,-128.356 119.38,-128.356 60.33,0 94.99,44.067 94.99,44.067 v 50.488 h -41.08 c -6.84,0 -10.27,3.855 -10.27,10.699 v 5.133 c 0,6.844 3.43,10.699 10.27,10.699 h 58.61 c 6.85,0 10.27,-3.855 10.27,-10.699 V 555.379 c 0,-6.84 -3.42,-10.688 -10.27,-10.688 h -5.98 c -6.85,0 -10.7,3.848 -10.7,9.418 v 15.403 c 0,5.566 0.43,11.117 0.43,11.117 h -0.86 c 0,0 -34.23,-41.078 -97.98,-41.078 -82.58,0 -147.62,66.332 -147.62,155.324 0,87.711 65.04,155.742 151.89,155.742"
           style="fill:#7b7979;fill-opacity:1;fill-rule:nonzero;stroke:none"
           id="path3971" />
        <path
           d="m 2131.78,567.371 c 70.6,0 122.38,56.481 122.38,129.645 0,71.453 -51.78,125.789 -122.38,125.789 -70.17,0 -122.36,-54.336 -122.36,-125.789 0,-73.164 52.19,-129.645 122.36,-129.645 z m 0,283.246 c 88.15,0 153.19,-67.176 153.19,-153.601 0,-88.141 -65.04,-157.465 -153.19,-157.465 -87.71,0 -153.17,69.324 -153.17,157.465 0,86.425 65.46,153.601 153.17,153.601"
           style="fill:#7b7979;fill-opacity:1;fill-rule:nonzero;stroke:none"
           id="path3973" />
        <path
           d="m 2348.69,834.789 c 0,6.844 3.43,10.699 10.28,10.699 h 8.98 c 6.42,0 10.27,-3.855 10.27,-10.699 v -263.57 h 128.79 c 6.84,0 10.69,-3.848 10.69,-10.699 v -5.141 c 0,-6.84 -3.85,-10.688 -10.69,-10.688 h -148.04 c -6.85,0 -10.28,3.848 -10.28,10.688 v 279.41"
           style="fill:#7b7979;fill-opacity:1;fill-rule:nonzero;stroke:none"
           id="path3975" />
        <path
           d="m 2656.31,571.219 c 74.02,0 123.24,43.219 123.24,124.082 0,80.015 -49.64,123.652 -123.24,123.652 h -64.6 V 571.219 Z m -94.14,263.57 c 0,6.844 3.43,10.699 10.29,10.699 h 86.84 c 90.29,0 151.05,-55.203 151.05,-150.187 0,-95.84 -60.76,-150.61 -151.05,-150.61 h -86.84 c -6.86,0 -10.29,3.848 -10.29,10.688 v 279.41"
           style="fill:#7b7979;fill-opacity:1;fill-rule:nonzero;stroke:none"
           id="path3977" />
        <path
           d="m 2856.95,586.195 5.14,6.414 c 4.27,5.137 8.97,5.575 14.98,1.286 10.26,-8.555 35.5,-26.094 69.3,-26.094 35.94,0 61.18,20.101 61.18,51.34 0,75.734 -149.74,57.761 -149.74,151.039 0,49.203 41.5,80.437 94.13,80.437 35.94,0 62.04,-14.969 73.15,-23.527 5.15,-3.856 6,-8.563 2.58,-14.125 l -3.85,-6.848 c -3.85,-6.41 -9.41,-6.41 -14.98,-2.992 -10.7,7.273 -30.38,19.258 -57.76,19.258 -34.23,0 -62.9,-18.828 -62.9,-50.496 0,-72.309 149.76,-53.051 149.76,-149.746 0,-46.211 -34.23,-82.59 -91.57,-82.59 -44.07,0 -75.73,21.398 -88.14,31.668 -4.28,4.281 -5.56,8.98 -1.28,14.976"
           style="fill:#7b7979;fill-opacity:1;fill-rule:nonzero;stroke:none"
           id="path3979" />
        <path
           d="m 3230.89,850.617 c 53.48,0 87.28,-21.39 100.97,-32.09 5.14,-4.277 5.14,-9.414 1.72,-14.972 l -3.86,-5.563 c -3.84,-5.133 -8.98,-5.566 -14.55,-1.715 -12.83,8.985 -41.92,26.528 -83.43,26.528 -73.17,0 -121.08,-54.766 -121.08,-125.364 0,-71.453 47.91,-130.07 122.36,-130.07 44.93,0 76.17,21.82 89.43,32.516 5.13,4.289 10.26,4.289 14.55,-1.282 l 3.86,-4.71 c 4.27,-5.125 3.84,-10.266 -0.86,-14.973 -14.12,-11.981 -51.35,-39.371 -107.83,-39.371 -91.57,0 -152.32,69.75 -152.32,157.465 0,87.285 62.47,153.601 151.04,153.601"
           style="fill:#7b7979;fill-opacity:1;fill-rule:nonzero;stroke:none"
           id="path3981" />
        <path
           d="m 3403.71,834.789 c 0,6.844 3.43,10.699 10.28,10.699 h 8.98 c 6.42,0 10.27,-3.855 10.27,-10.699 V 708.566 h 174.57 v 126.223 c 0,6.844 3.43,10.699 10.27,10.699 h 8.55 c 6.85,0 10.7,-3.855 10.7,-10.699 v -279.41 c 0,-6.84 -3.85,-10.688 -10.7,-10.688 h -8.55 c -6.84,0 -10.27,3.848 -10.27,10.688 V 682.035 H 3433.24 V 555.379 c 0,-6.84 -3.85,-10.688 -10.27,-10.688 h -8.98 c -6.85,0 -10.28,3.848 -10.28,10.688 v 279.41"
           style="fill:#7b7979;fill-opacity:1;fill-rule:nonzero;stroke:none"
           id="path3983" />
        <path
           d="m 3733.16,835.648 c 0.42,6.411 4.28,9.84 10.69,9.84 h 11.56 c 6.41,0 10.26,-2.57 12.4,-8.136 l 75.31,-168.579 c 6.84,-15.402 14.97,-36.793 14.97,-36.793 h 0.86 c 0,0 7.7,21.391 14.54,36.793 l 75.31,168.579 c 2.56,5.566 5.99,8.136 12.41,8.136 h 11.55 c 6.42,0 10.26,-3.429 10.7,-9.84 l 22.67,-279.828 c 0.43,-7.281 -2.99,-11.129 -10.26,-11.129 h -8.57 c -6.41,0 -10.26,3.43 -10.69,9.84 l -15.83,200.672 c -1.28,16.262 -1.28,41.93 -1.28,41.93 h -0.86 c 0,0 -8.57,-26.524 -15.4,-41.93 l -67.61,-146.328 c -2.14,-5.566 -5.99,-8.129 -11.98,-8.129 h -10.26 c -6.42,0 -10.27,2.563 -12.41,8.129 l -67.18,146.328 c -6.42,14.977 -15.83,42.789 -15.83,42.789 h -0.85 c 0,0 0,-26.527 -1.29,-42.789 L 3740,554.531 c -0.42,-6.41 -4.28,-9.84 -10.7,-9.84 h -8.56 c -7.28,0 -10.69,3.848 -10.27,11.129 l 22.69,279.828"
           style="fill:#7b7979;fill-opacity:1;fill-rule:nonzero;stroke:none"
           id="path3985" />
        <path
           d="m 4079.25,834.789 c 0,6.844 3.43,10.699 10.29,10.699 h 8.97 c 6.43,0 10.28,-3.855 10.28,-10.699 v -279.41 c 0,-6.84 -3.85,-10.688 -10.28,-10.688 h -8.97 c -6.86,0 -10.29,3.848 -10.29,10.688 v 279.41"
           style="fill:#7b7979;fill-opacity:1;fill-rule:nonzero;stroke:none"
           id="path3987" />
        <path
           d="m 4286.77,571.219 c 74.02,0 123.23,43.219 123.23,124.082 0,80.015 -49.64,123.652 -123.23,123.652 h -64.61 V 571.219 Z m -94.14,263.57 c 0,6.844 3.43,10.699 10.28,10.699 h 86.85 c 90.29,0 151.04,-55.203 151.04,-150.187 0,-95.84 -60.75,-150.61 -151.04,-150.61 h -86.85 c -6.85,0 -10.28,3.848 -10.28,10.688 v 279.41"
           style="fill:#7b7979;fill-opacity:1;fill-rule:nonzero;stroke:none"
           id="path3989" />
        <path
           d="m 4555.02,818.953 h -97.12 c -6.85,0 -10.71,3.852 -10.71,10.699 v 5.137 c 0,6.844 3.86,10.699 10.71,10.699 h 224.2 c 6.85,0 10.7,-3.855 10.7,-10.699 v -5.137 c 0,-6.847 -3.85,-10.699 -10.7,-10.699 h -97.55 V 555.379 c 0,-6.84 -3.42,-10.688 -10.28,-10.688 h -8.55 c -6.85,0 -10.7,3.848 -10.7,10.688 v 263.574"
           style="fill:#7b7979;fill-opacity:1;fill-rule:nonzero;stroke:none"
           id="path3991" />
        <path
           d="m 1661.16,110.82 5.14,6.418 c 4.27,5.141 8.98,5.563 14.98,1.282 10.26,-8.551 35.5,-26.0903 69.31,-26.0903 35.94,0 61.18,20.1013 61.18,51.3403 0,75.742 -149.75,57.769 -149.75,151.031 0,49.211 41.5,80.437 94.13,80.437 35.94,0 62.04,-14.968 73.16,-23.527 5.14,-3.852 6,-8.551 2.57,-14.121 l -3.85,-6.84 c -3.85,-6.43 -9.41,-6.43 -14.98,-3 -10.69,7.281 -30.37,19.262 -57.75,19.262 -34.23,0 -62.9,-18.832 -62.9,-50.492 0,-72.309 149.75,-53.059 149.75,-149.75 0,-46.211 -34.22,-82.5903 -91.56,-82.5903 -44.07,0 -75.74,21.3906 -88.14,31.6719 -4.28,4.2774 -5.57,8.9764 -1.29,14.9684"
           style="fill:#7b7979;fill-opacity:1;fill-rule:nonzero;stroke:none"
           id="path3993" />
        <path
           d="m 2035.09,375.238 c 53.49,0 87.29,-21.386 100.99,-32.078 5.13,-4.281 5.13,-9.422 1.7,-14.98 l -3.85,-5.551 c -3.85,-5.149 -8.98,-5.57 -14.54,-1.719 -12.84,8.981 -41.93,26.531 -83.44,26.531 -73.16,0 -121.08,-54.781 -121.08,-125.371 0,-71.449 47.92,-130.07 122.36,-130.07 44.93,0 76.16,21.82 89.44,32.52 5.12,4.269 10.26,4.269 14.54,-1.282 l 3.85,-4.718 c 4.27,-5.122 3.85,-10.258 -0.85,-14.969 -14.13,-11.9807 -51.35,-39.3713 -107.83,-39.3713 -91.56,0 -152.32,69.7503 -152.32,157.4613 0,87.281 62.47,153.597 151.03,153.597"
           style="fill:#7b7979;fill-opacity:1;fill-rule:nonzero;stroke:none"
           id="path3995" />
        <path
           d="m 2207.93,359.41 c 0,6.852 3.42,10.711 10.27,10.711 h 8.98 c 6.43,0 10.28,-3.859 10.28,-10.711 V 233.199 h 174.57 V 359.41 c 0,6.852 3.43,10.711 10.27,10.711 h 8.56 c 6.84,0 10.69,-3.859 10.69,-10.711 V 80.0117 c 0,-6.8398 -3.85,-10.6914 -10.69,-10.6914 h -8.56 c -6.84,0 -10.27,3.8516 -10.27,10.6914 V 206.66 H 2237.46 V 80.0117 c 0,-6.8398 -3.85,-10.6914 -10.28,-10.6914 h -8.98 c -6.85,0 -10.27,3.8516 -10.27,10.6914 V 359.41"
           style="fill:#7b7979;fill-opacity:1;fill-rule:nonzero;stroke:none"
           id="path3997" />
        <path
           d="m 2521.1,359.41 c 0,6.852 3.86,10.711 10.7,10.711 h 8.56 c 6.85,0 10.7,-3.859 10.7,-10.711 V 174.578 c 0,-51.777 33.37,-82.578 85.14,-82.578 51.77,0 85.57,30.801 85.57,83.43 v 183.98 c 0,6.852 3.86,10.711 10.7,10.711 h 8.56 c 6.85,0 10.27,-3.859 10.27,-10.711 V 174.148 c 0,-66.75 -46.64,-109.9683 -114.67,-109.9683 -68.46,0 -115.53,43.2183 -115.53,109.9683 V 359.41"
           style="fill:#7b7979;fill-opacity:1;fill-rule:nonzero;stroke:none"
           id="path3999" />
        <path
           d="m 2831.29,359.41 c 0,6.852 3.42,10.711 10.27,10.711 h 8.98 c 6.43,0 10.28,-3.859 10.28,-10.711 V 95.8516 h 128.78 c 6.85,0 10.7,-3.8516 10.7,-10.7032 v -5.1367 c 0,-6.8398 -3.85,-10.6914 -10.7,-10.6914 h -148.04 c -6.85,0 -10.27,3.8516 -10.27,10.6914 V 359.41"
           style="fill:#7b7979;fill-opacity:1;fill-rule:nonzero;stroke:none"
           id="path4001" />
        <path
           d="m 3044.77,359.41 c 0,6.852 3.43,10.711 10.28,10.711 h 148.47 c 6.84,0 10.7,-3.859 10.7,-10.711 v -5.121 c 0,-6.848 -3.86,-10.711 -10.7,-10.711 H 3074.3 V 234.051 h 103.54 c 6.84,0 10.7,-3.43 10.7,-10.27 v -5.562 c 0,-6.84 -3.86,-10.699 -10.7,-10.699 H 3074.3 V 95.8516 h 136.92 c 6.84,0 10.69,-3.8516 10.69,-10.7032 v -5.1367 c 0,-6.8398 -3.85,-10.6914 -10.69,-10.6914 h -156.17 c -6.85,0 -10.28,3.8516 -10.28,10.6914 V 359.41"
           style="fill:#7b7979;fill-opacity:1;fill-rule:nonzero;stroke:none"
           id="path4003" />
        <path
           d="m 560.105,777.996 c 0,0 -18.976,54.359 -55.089,89.879 0,0 -102.45,126.605 -118.875,171.065 -19.493,52.75 -38.664,107.27 -28.028,153.67 0,0 155.133,-250.294 330.614,-265.895 v 85.505 c -41.106,14.02 -70.711,52.87 -70.711,98.72 0,45.85 29.605,84.7 70.711,98.72 v 75.43 c 0,22.26 -18.047,40.3 -40.293,40.3 H 40.3008 c -22.2578,0 -40.30470625,-18.04 -40.30470625,-40.3 V 747.582 c 0,-22.258 18.04690625,-40.297 40.30470625,-40.297 H 559.391 c 5.597,24.141 8.125,50.403 0.714,70.711"
           style="fill:#64c431;fill-opacity:1;fill-rule:nonzero;stroke:none"
           id="path4005" />
        <path
           d="M 1319.34,1583.66 H 785.652 c -22.257,0 -40.293,-18.04 -40.293,-40.3 V 1212.7 c 46.582,-10.47 81.414,-52.01 81.414,-101.76 0,-49.74 -34.832,-91.29 -81.414,-101.76 v -80.371 c 161.121,24.117 292.891,193.421 344.361,282.161 0,0 -20.86,-225.169 -180.728,-351.79 C 834.059,799.828 808.199,745.266 799.195,707.285 h 520.145 c 22.26,0 40.3,18.039 40.3,40.297 v 795.778 c 0,22.26 -18.04,40.3 -40.3,40.3"
           style="fill:#f36621;fill-opacity:1;fill-rule:nonzero;stroke:none"
           id="path4007" />
        <path
           d="M 610.613,480.328 C 566.637,418.23 510.105,330.531 436.648,141.102 c 0,0 -49.289,117.91 29.961,353.718 0,0 39.629,90.848 69.59,145.938 0,0 3.438,7.16 7.899,18.355 H 188.727 c -22.254,0 -40.293,-18.039 -40.293,-40.297 V 40.3008 C 148.434,18.0391 166.473,0 188.727,0 h 459.707 c 22.246,0 40.293,18.0391 40.293,40.3008 V 410.262 c -11.239,22.629 -23.114,49.238 -33.301,78.097 0,0 -9.754,41.469 -44.813,-8.031"
           style="fill:#e01e25;fill-opacity:1;fill-rule:nonzero;stroke:none"
           id="path4009" />
        <path
           d="m 848.102,374.98 c 47.296,-85.769 33.347,-89.16 160.198,-222.531 0,0 -164.991,26.93 -262.941,162.051 V 108.57 c 0,-22.2497 18.036,-40.2887 40.293,-40.2887 h 271.678 c 22.26,0 40.29,18.039 40.29,40.2887 v 510.246 c 0,22.258 -18.03,40.297 -40.29,40.297 H 794.242 c 0,-0.07 0,-0.164 -0.008,-0.23 C 792.293,595.07 779.598,499.23 848.102,374.98"
           style="fill:#508fd3;fill-opacity:1;fill-rule:nonzero;stroke:none"
           id="path4011" />
        <path
           d="m 908.992,859.18 c 159.868,126.621 180.728,351.79 180.728,351.79 -51.47,-88.74 -183.24,-258.044 -344.361,-282.161 -14.347,-2.145 -28.898,-3.262 -43.671,-2.946 -4.336,0.094 -8.653,0.465 -12.961,0.852 -175.481,15.601 -330.614,265.895 -330.614,265.895 -10.636,-46.4 8.535,-100.92 28.028,-153.67 16.425,-44.46 118.875,-171.065 118.875,-171.065 36.113,-35.52 55.089,-89.879 55.089,-89.879 7.411,-20.308 4.883,-46.57 -0.714,-70.711 -4.317,-18.64 -10.391,-35.875 -15.293,-48.172 -4.461,-11.195 -7.899,-18.355 -7.899,-18.355 -29.961,-55.09 -69.59,-145.938 -69.59,-145.938 -79.25,-235.808 -29.961,-353.718 -29.961,-353.718 73.457,189.429 129.989,277.128 173.965,339.226 35.059,49.5 44.813,8.031 44.813,8.031 10.187,-28.859 22.062,-55.468 33.301,-78.097 21.574,-43.442 40.742,-72 40.742,-72 5.039,-8.301 10.383,-16.172 15.89,-23.762 C 843.309,179.379 1008.3,152.449 1008.3,152.449 881.449,285.82 895.398,289.211 848.102,374.98 c -68.504,124.25 -55.809,220.09 -53.868,283.903 0.008,0.066 0.008,0.16 0.008,0.23 0.227,8.188 -0.504,25.125 4.953,48.172 9.004,37.981 34.864,92.543 109.797,151.895"
           style="fill:#ffffff;fill-opacity:1;fill-rule:nonzero;stroke:none"
           id="path4013" />
        <path
           d="m 618.016,1110.94 c 0,-45.85 29.605,-84.7 70.711,-98.72 10.578,-3.61 21.875,-5.66 33.671,-5.66 7.903,0 15.555,0.95 22.961,2.62 46.582,10.47 81.414,52.02 81.414,101.76 0,49.75 -34.832,91.29 -81.414,101.76 -7.406,1.67 -15.058,2.62 -22.961,2.62 -11.796,0 -23.093,-2.05 -33.671,-5.66 -41.106,-14.02 -70.711,-52.87 -70.711,-98.72"
           style="fill:#ffffff;fill-opacity:1;fill-rule:nonzero;stroke:none"
           id="path4015" />
      </g>
    </g>
    <g
       transform="matrix(0.9783268,0,0,0.9783268,16.925161,15.042574)"
       id="text4178"
       style="font-style:normal;font-weight:normal;font-size:6.45530033px;line-height:1.25;font-family:sans-serif;letter-spacing:0px;word-spacing:0px;fill:#7b7979;fill-opacity:1;stroke:none;stroke-width:0.16138242"
       aria-label="IGS Hannover-Mühlenberg">
      <path
         id="path65"
         style="font-style:normal;font-variant:normal;font-weight:normal;font-stretch:normal;font-family:'Museo Sans Rounded';-inkscape-font-specification:'Museo Sans Rounded';fill:#7b7979;fill-opacity:1;stroke-width:0.16138242"
         d="m 62.418531,110.90974 c 0,0.10328 0.05164,0.16138 0.154927,0.16138 h 0.135562 c 0.09683,0 0.154927,-0.0581 0.154927,-0.16138 v -4.21531 c 0,-0.10329 -0.0581,-0.16138 -0.154927,-0.16138 h -0.135562 c -0.103285,0 -0.154927,0.0581 -0.154927,0.16138 z" />
      <path
         id="path67"
         style="font-style:normal;font-variant:normal;font-weight:normal;font-stretch:normal;font-family:'Museo Sans Rounded';-inkscape-font-specification:'Museo Sans Rounded';fill:#7b7979;fill-opacity:1;stroke-width:0.16138242"
         d="m 63.829821,108.80531 c 0,1.3427 0.981206,2.34327 2.227079,2.34327 0.961839,0 1.478263,-0.6197 1.478263,-0.6197 h 0.01291 c 0,0 -0.0065,0.0839 -0.0065,0.16783 v 0.23239 c 0,0.0839 0.0581,0.14202 0.161382,0.14202 h 0.09037 c 0.103285,0 0.154928,-0.0581 0.154928,-0.16138 v -1.84622 c 0,-0.10328 -0.05164,-0.16138 -0.154928,-0.16138 h -0.884376 c -0.103285,0 -0.154927,0.0581 -0.154927,0.16138 v 0.0775 c 0,0.10328 0.05164,0.16138 0.154927,0.16138 h 0.619709 v 0.76172 c 0,0 -0.522879,0.6649 -1.433077,0.6649 -1.032848,0 -1.801028,-0.82628 -1.801028,-1.93659 0,-1.07158 0.742359,-1.91722 1.83976,-1.91722 0.606798,0 1.032848,0.23239 1.226507,0.35504 0.08392,0.0581 0.161383,0.0452 0.219481,-0.0387 l 0.0581,-0.0839 c 0.06455,-0.0775 0.0581,-0.15493 -0.02582,-0.21948 -0.193659,-0.13556 -0.716538,-0.43251 -1.491174,-0.43251 -1.310426,0 -2.291632,1.02639 -2.291632,2.34973 z" />
      <path
         id="path69"
         style="font-style:normal;font-variant:normal;font-weight:normal;font-stretch:normal;font-family:'Museo Sans Rounded';-inkscape-font-specification:'Museo Sans Rounded';fill:#7b7979;fill-opacity:1;stroke-width:0.16138242"
         d="m 68.710331,110.67089 c 0.187204,0.15493 0.664896,0.47769 1.329792,0.47769 0.86501,0 1.381434,-0.5487 1.381434,-1.24587 0,-1.4589 -2.259355,-1.16841 -2.259355,-2.25935 0,-0.4777 0.432505,-0.76173 0.948929,-0.76173 0.413139,0 0.710083,0.18075 0.871466,0.29049 0.08392,0.0516 0.167837,0.0516 0.225935,-0.0452 l 0.0581,-0.10328 c 0.05164,-0.0839 0.03873,-0.15493 -0.03873,-0.21303 -0.167838,-0.1291 -0.561611,-0.35504 -1.103856,-0.35504 -0.794002,0 -1.420166,0.47124 -1.420166,1.2136 0,1.40725 2.259355,1.13613 2.259355,2.27872 0,0.47124 -0.380863,0.77463 -0.923108,0.77463 -0.509969,0 -0.890832,-0.26466 -1.045759,-0.39377 -0.09037,-0.0645 -0.161382,-0.0581 -0.225935,0.0194 l -0.07746,0.0968 c -0.06455,0.0904 -0.04519,0.16138 0.01937,0.22593 z" />
      <path
         id="path71"
         style="font-style:normal;font-variant:normal;font-weight:normal;font-stretch:normal;font-family:'Museo Sans Rounded';-inkscape-font-specification:'Museo Sans Rounded';fill:#7b7979;fill-opacity:1;stroke-width:0.16138242"
         d="m 73.967467,110.90974 c 0,0.10328 0.05164,0.16138 0.154927,0.16138 h 0.135561 c 0.09683,0 0.154928,-0.0581 0.154928,-0.16138 v -1.91077 h 2.633762 v 1.91077 c 0,0.10328 0.05164,0.16138 0.154927,0.16138 h 0.129106 c 0.103285,0 0.161383,-0.0581 0.161383,-0.16138 v -4.21531 c 0,-0.10329 -0.0581,-0.16138 -0.161383,-0.16138 h -0.129106 c -0.103284,0 -0.154927,0.0581 -0.154927,0.16138 v 1.90431 h -2.633762 v -1.90431 c 0,-0.10329 -0.0581,-0.16138 -0.154928,-0.16138 h -0.135561 c -0.103285,0 -0.154927,0.0581 -0.154927,0.16138 z" />
      <path
         id="path73"
         style="font-style:normal;font-variant:normal;font-weight:normal;font-stretch:normal;font-family:'Museo Sans Rounded';-inkscape-font-specification:'Museo Sans Rounded';fill:#7b7979;fill-opacity:1;stroke-width:0.16138242"
         d="m 78.294939,110.19966 c 0,0.62616 0.5487,0.94892 1.097401,0.94892 0.806912,0 1.103856,-0.74235 1.097401,-0.74235 h 0.01291 c 0,0 -0.01936,0.0968 -0.01936,0.2453 v 0.25821 c 0,0.10974 0.0581,0.16138 0.161382,0.16138 h 0.103285 c 0.103285,0 0.154927,-0.0581 0.154927,-0.16138 v -1.91723 c 0,-0.81336 -0.432505,-1.24587 -1.207141,-1.24587 -0.503514,0 -0.86501,0.18075 -1.032848,0.28403 -0.08392,0.0516 -0.09683,0.13557 -0.04519,0.21948 l 0.03873,0.0646 c 0.0581,0.0839 0.129106,0.0968 0.21948,0.0516 0.148472,-0.0904 0.42605,-0.22594 0.787546,-0.22594 0.458327,0 0.800458,0.21303 0.800458,0.83919 v 0.10329 h -0.187204 c -0.626164,0 -1.981777,0.0581 -1.981777,1.11677 z m 0.451871,-0.0387 c 0,-0.72945 1.026393,-0.74881 1.536361,-0.74881 h 0.180749 v 0.15493 c 0,0.56806 -0.367952,1.21359 -0.994117,1.21359 -0.484147,0 -0.722993,-0.31631 -0.722993,-0.61971 z" />
      <path
         id="path75"
         style="font-style:normal;font-variant:normal;font-weight:normal;font-stretch:normal;font-family:'Museo Sans Rounded';-inkscape-font-specification:'Museo Sans Rounded';fill:#7b7979;fill-opacity:1;stroke-width:0.16138242"
         d="m 81.850599,110.90974 c 0,0.10328 0.0581,0.16138 0.161382,0.16138 h 0.122651 c 0.103285,0 0.154927,-0.0581 0.154927,-0.16138 v -1.42662 c 0,-0.75527 0.542245,-1.32334 1.232962,-1.32334 0.626164,0 0.710083,0.45187 0.710083,0.96184 v 1.78812 c 0,0.10328 0.05164,0.16138 0.154928,0.16138 h 0.12265 c 0.103285,0 0.161383,-0.0581 0.161383,-0.16138 v -1.90431 c 0,-0.80046 -0.284033,-1.25879 -1.090946,-1.25879 -0.761725,0 -1.187775,0.5487 -1.310426,0.84565 h -0.01291 c 0,0 0.02582,-0.10329 0.02582,-0.23239 v -0.37441 c 0,-0.10329 -0.0581,-0.16138 -0.154928,-0.16138 H 82.01198 c -0.103285,0 -0.161382,0.0581 -0.161382,0.16138 z" />
      <path
         id="path77"
         style="font-style:normal;font-variant:normal;font-weight:normal;font-stretch:normal;font-family:'Museo Sans Rounded';-inkscape-font-specification:'Museo Sans Rounded';fill:#7b7979;fill-opacity:1;stroke-width:0.16138242"
         d="m 85.620393,110.90974 c 0,0.10328 0.0581,0.16138 0.161383,0.16138 h 0.12265 c 0.103285,0 0.154927,-0.0581 0.154927,-0.16138 v -1.42662 c 0,-0.75527 0.542246,-1.32334 1.232963,-1.32334 0.626164,0 0.710083,0.45187 0.710083,0.96184 v 1.78812 c 0,0.10328 0.05164,0.16138 0.154927,0.16138 h 0.122651 c 0.103285,0 0.161382,-0.0581 0.161382,-0.16138 v -1.90431 c 0,-0.80046 -0.284033,-1.25879 -1.090946,-1.25879 -0.761725,0 -1.187775,0.5487 -1.310425,0.84565 h -0.01291 c 0,0 0.02582,-0.10329 0.02582,-0.23239 v -0.37441 c 0,-0.10329 -0.0581,-0.16138 -0.154927,-0.16138 h -0.116195 c -0.103285,0 -0.161383,0.0581 -0.161383,0.16138 z" />
      <path
         id="path79"
         style="font-style:normal;font-variant:normal;font-weight:normal;font-stretch:normal;font-family:'Museo Sans Rounded';-inkscape-font-specification:'Museo Sans Rounded';fill:#7b7979;fill-opacity:1;stroke-width:0.16138242"
         d="m 89.164252,109.43147 c 0,0.98121 0.768181,1.71711 1.71711,1.71711 0.942474,0 1.710654,-0.7359 1.710654,-1.71711 0,-0.96183 -0.76818,-1.68483 -1.717109,-1.68483 -0.942474,0 -1.710655,0.723 -1.710655,1.68483 z m 0.451871,0 c 0,-0.7359 0.568066,-1.29106 1.265239,-1.29106 0.690717,0 1.258783,0.55516 1.258783,1.29106 0,0.75528 -0.568066,1.32334 -1.258783,1.32334 -0.697173,0 -1.265239,-0.56806 -1.265239,-1.32334 z" />
      <path
         id="path81"
         style="font-style:normal;font-variant:normal;font-weight:normal;font-stretch:normal;font-family:'Museo Sans Rounded';-inkscape-font-specification:'Museo Sans Rounded';fill:#7b7979;fill-opacity:1;stroke-width:0.16138242"
         d="m 94.098219,110.94847 c 0.03228,0.0839 0.09037,0.12265 0.180749,0.12265 h 0.213024 c 0.08392,0 0.148472,-0.0387 0.174294,-0.12265 l 1.129677,-2.93716 c 0.03873,-0.1162 -0.0065,-0.1872 -0.129106,-0.1872 h -0.135561 c -0.08392,0 -0.148472,0.0387 -0.174293,0.1291 l -0.8521,2.2529 c -0.06455,0.16784 -0.116195,0.39377 -0.116195,0.39377 h -0.01291 c 0,0 -0.05164,-0.23239 -0.10974,-0.39377 l -0.858555,-2.2529 c -0.02582,-0.0904 -0.09037,-0.1291 -0.174293,-0.1291 h -0.142017 c -0.116195,0 -0.167838,0.071 -0.12265,0.1872 z" />
      <path
         id="path83"
         style="font-style:normal;font-variant:normal;font-weight:normal;font-stretch:normal;font-family:'Museo Sans Rounded';-inkscape-font-specification:'Museo Sans Rounded';fill:#7b7979;fill-opacity:1;stroke-width:0.16138242"
         d="m 96.187216,109.45084 c 0,1.00057 0.729449,1.69774 1.697744,1.69774 0.52288,0 0.910198,-0.23239 1.084491,-0.36149 0.07746,-0.0581 0.09037,-0.13556 0.04519,-0.21303 l -0.05164,-0.0775 c -0.05164,-0.0839 -0.12265,-0.0968 -0.213025,-0.0387 -0.148471,0.11619 -0.445415,0.29694 -0.852099,0.29694 -0.671351,0 -1.239418,-0.47124 -1.258784,-1.29751 h 2.336819 c 0.09683,0 0.167838,-0.071 0.167838,-0.16139 0,-0.9231 -0.490603,-1.54927 -1.355613,-1.54927 -0.877921,0 -1.600915,0.63908 -1.600915,1.7042 z m 0.471237,-0.32276 c 0.103285,-0.65844 0.574522,-1.01994 1.116767,-1.01994 0.484148,0 0.897287,0.33567 0.923108,1.01994 z" />
      <path
         id="path85"
         style="font-style:normal;font-variant:normal;font-weight:normal;font-stretch:normal;font-family:'Museo Sans Rounded';-inkscape-font-specification:'Museo Sans Rounded';fill:#7b7979;fill-opacity:1;stroke-width:0.16138242"
         d="m 99.917876,110.90974 c 0,0.10328 0.0581,0.16138 0.161384,0.16138 h 0.12265 c 0.10328,0 0.15493,-0.0581 0.15493,-0.16138 v -1.2136 c 0,-0.6778 0.32922,-1.4589 1.01348,-1.4589 0.10974,0 0.18075,-0.0581 0.18075,-0.16138 v -0.11619 c 0,-0.10329 -0.0516,-0.15493 -0.16784,-0.15493 -0.51642,0 -0.89083,0.40668 -1.04576,0.87792 h -0.0129 c 0,0 0.0258,-0.1162 0.0258,-0.25821 v -0.43896 c 0,-0.10329 -0.0581,-0.16138 -0.15493,-0.16138 h -0.11619 c -0.103286,0 -0.161384,0.0581 -0.161384,0.16138 z" />
      <path
         id="path87"
         style="font-style:normal;font-variant:normal;font-weight:normal;font-stretch:normal;font-family:'Museo Sans Rounded';-inkscape-font-specification:'Museo Sans Rounded';fill:#7b7979;fill-opacity:1;stroke-width:0.16138242"
         d="m 102.10794,109.43793 h 1.51699 c 0.10329,0 0.15493,-0.0516 0.15493,-0.15493 v -0.0839 c 0,-0.10328 -0.0516,-0.16138 -0.15493,-0.16138 h -1.51699 c -0.10329,0 -0.15493,0.0581 -0.15493,0.16138 v 0.0839 c 0,0.10329 0.0516,0.15493 0.15493,0.15493 z" />
      <path
         id="path89"
         style="font-style:normal;font-variant:normal;font-weight:normal;font-stretch:normal;font-family:'Museo Sans Rounded';-inkscape-font-specification:'Museo Sans Rounded';fill:#7b7979;fill-opacity:1;stroke-width:0.16138242"
         d="m 104.70831,110.90328 c -0.006,0.10974 0.0452,0.16784 0.15493,0.16784 h 0.12911 c 0.0968,0 0.15492,-0.0516 0.16138,-0.14847 l 0.23884,-3.02754 c 0.0194,-0.2453 0.0194,-0.64553 0.0194,-0.64553 h 0.0129 c 0,0 0.14202,0.4196 0.23885,0.64553 l 1.01348,2.20772 c 0.0323,0.0839 0.0904,0.12265 0.1872,0.12265 h 0.15493 c 0.0904,0 0.14847,-0.0387 0.18075,-0.12265 l 1.01994,-2.20772 c 0.10328,-0.23239 0.23239,-0.63262 0.23239,-0.63262 h 0.0129 c 0,0 0,0.38732 0.0194,0.63262 l 0.23885,3.02754 c 0.006,0.0968 0.0645,0.14847 0.16138,0.14847 h 0.12911 c 0.10974,0 0.16138,-0.0581 0.15493,-0.16784 l -0.34214,-4.22176 c -0.006,-0.0968 -0.0645,-0.14847 -0.16138,-0.14847 h -0.17429 c -0.0968,0 -0.14847,0.0387 -0.1872,0.12265 l -1.13614,2.54338 c -0.10328,0.23239 -0.21948,0.55516 -0.21948,0.55516 h -0.0129 c 0,0 -0.12265,-0.32277 -0.22593,-0.55516 l -1.13614,-2.54338 c -0.0323,-0.0839 -0.0904,-0.12265 -0.1872,-0.12265 h -0.17429 c -0.0968,0 -0.15493,0.0516 -0.16139,0.14847 z" />
      <path
         id="path91"
         style="font-style:normal;font-variant:normal;font-weight:normal;font-stretch:normal;font-family:'Museo Sans Rounded';-inkscape-font-specification:'Museo Sans Rounded';fill:#7b7979;fill-opacity:1;stroke-width:0.16138242"
         d="m 111.89972,107.08175 h 0.0839 c 0.10328,0 0.16138,-0.0516 0.16138,-0.15493 v -0.23885 c 0,-0.10328 -0.0581,-0.16138 -0.16138,-0.16138 h -0.0839 c -0.10328,0 -0.15493,0.0581 -0.15493,0.16138 v 0.23885 c 0,0.10328 0.0517,0.15493 0.15493,0.15493 z m -0.97475,0 h 0.0839 c 0.10328,0 0.15493,-0.0516 0.15493,-0.15493 v -0.23885 c 0,-0.10328 -0.0516,-0.16138 -0.15493,-0.16138 h -0.0839 c -0.10328,0 -0.15493,0.0581 -0.15493,0.16138 v 0.23885 c 0,0.10328 0.0517,0.15493 0.15493,0.15493 z m -0.85855,2.80805 c 0,0.84565 0.31631,1.25878 1.08449,1.25878 0.71653,0 1.15549,-0.52933 1.27815,-0.84564 h 0.0129 c 0,0 -0.0194,0.10329 -0.0194,0.23239 v 0.37441 c 0,0.10328 0.0516,0.16138 0.15493,0.16138 h 0.11619 c 0.10329,0 0.15493,-0.0581 0.15493,-0.16138 v -2.92425 c 0,-0.10329 -0.0516,-0.16138 -0.15493,-0.16138 h -0.12265 c -0.10328,0 -0.16138,0.0581 -0.16138,0.16138 v 1.39434 c 0,0.70363 -0.45833,1.35562 -1.20069,1.35562 -0.62616,0 -0.70362,-0.45188 -0.70362,-0.96184 v -1.78812 c 0,-0.10329 -0.0581,-0.16138 -0.16139,-0.16138 h -0.12265 c -0.10328,0 -0.15492,0.0581 -0.15492,0.16138 z" />
      <path
         id="path93"
         style="font-style:normal;font-variant:normal;font-weight:normal;font-stretch:normal;font-family:'Museo Sans Rounded';-inkscape-font-specification:'Museo Sans Rounded';fill:#7b7979;fill-opacity:1;stroke-width:0.16138242"
         d="m 113.85618,110.90974 c 0,0.10328 0.0516,0.16138 0.15493,0.16138 h 0.12265 c 0.10328,0 0.16138,-0.0581 0.16138,-0.16138 v -1.40726 c 0,-0.78109 0.54224,-1.3427 1.22651,-1.3427 0.63262,0 0.71008,0.45187 0.71008,0.96184 v 1.78812 c 0,0.10328 0.0581,0.16138 0.16138,0.16138 h 0.12265 c 0.10329,0 0.15493,-0.0581 0.15493,-0.16138 v -1.90431 c 0,-0.80046 -0.28403,-1.25879 -1.09095,-1.25879 -0.7359,0 -1.17486,0.52934 -1.29751,0.83274 h -0.0129 c 0,0 0.0258,-0.1162 0.0258,-0.26467 v -1.62028 c 0,-0.10329 -0.0581,-0.16138 -0.16138,-0.16138 h -0.12265 c -0.10329,0 -0.15493,0.0581 -0.15493,0.16138 z" />
      <path
         id="path95"
         style="font-style:normal;font-variant:normal;font-weight:normal;font-stretch:normal;font-family:'Museo Sans Rounded';-inkscape-font-specification:'Museo Sans Rounded';fill:#7b7979;fill-opacity:1;stroke-width:0.16138242"
         d="m 117.63858,110.30294 c 0,0.71008 0.47769,0.794 0.74236,0.794 0.12265,0 0.16784,-0.0645 0.16784,-0.16138 v -0.0968 c 0,-0.0968 -0.0581,-0.13556 -0.13556,-0.14202 -0.14202,-0.0194 -0.33568,-0.0645 -0.33568,-0.47123 v -3.53105 c 0,-0.10329 -0.0581,-0.16138 -0.16138,-0.16138 h -0.12265 c -0.10329,0 -0.15493,0.0581 -0.15493,0.16138 z" />
      <path
         id="path97"
         style="font-style:normal;font-variant:normal;font-weight:normal;font-stretch:normal;font-family:'Museo Sans Rounded';-inkscape-font-specification:'Museo Sans Rounded';fill:#7b7979;fill-opacity:1;stroke-width:0.16138242"
         d="m 118.9951,109.45084 c 0,1.00057 0.72945,1.69774 1.69775,1.69774 0.52288,0 0.9102,-0.23239 1.08449,-0.36149 0.0775,-0.0581 0.0904,-0.13556 0.0452,-0.21303 l -0.0516,-0.0775 c -0.0516,-0.0839 -0.12265,-0.0968 -0.21302,-0.0387 -0.14847,0.11619 -0.44542,0.29694 -0.8521,0.29694 -0.67135,0 -1.23942,-0.47124 -1.25878,-1.29751 h 2.33681 c 0.0968,0 0.16784,-0.071 0.16784,-0.16139 0,-0.9231 -0.4906,-1.54927 -1.35561,-1.54927 -0.87792,0 -1.60092,0.63908 -1.60092,1.7042 z m 0.47124,-0.32276 c 0.10329,-0.65844 0.57452,-1.01994 1.11677,-1.01994 0.48415,0 0.89728,0.33567 0.92311,1.01994 z" />
      <path
         id="path99"
         style="font-style:normal;font-variant:normal;font-weight:normal;font-stretch:normal;font-family:'Museo Sans Rounded';-inkscape-font-specification:'Museo Sans Rounded';fill:#7b7979;fill-opacity:1;stroke-width:0.16138242"
         d="m 122.72576,110.90974 c 0,0.10328 0.0581,0.16138 0.16138,0.16138 h 0.12265 c 0.10329,0 0.15493,-0.0581 0.15493,-0.16138 v -1.42662 c 0,-0.75527 0.54225,-1.32334 1.23296,-1.32334 0.62617,0 0.71009,0.45187 0.71009,0.96184 v 1.78812 c 0,0.10328 0.0516,0.16138 0.15492,0.16138 h 0.12265 c 0.10329,0 0.16139,-0.0581 0.16139,-0.16138 v -1.90431 c 0,-0.80046 -0.28404,-1.25879 -1.09095,-1.25879 -0.76172,0 -1.18777,0.5487 -1.31042,0.84565 h -0.0129 c 0,0 0.0258,-0.10329 0.0258,-0.23239 v -0.37441 c 0,-0.10329 -0.0581,-0.16138 -0.15493,-0.16138 h -0.1162 c -0.10328,0 -0.16138,0.0581 -0.16138,0.16138 z" />
      <path
         id="path101"
         style="font-style:normal;font-variant:normal;font-weight:normal;font-stretch:normal;font-family:'Museo Sans Rounded';-inkscape-font-specification:'Museo Sans Rounded';fill:#7b7979;fill-opacity:1;stroke-width:0.16138242"
         d="m 126.50201,110.90974 c 0,0.10328 0.0516,0.16138 0.15493,0.16138 h 0.10328 c 0.10329,0 0.16138,-0.0581 0.16138,-0.14847 v -0.21303 c 0,-0.14201 -0.0258,-0.23884 -0.0258,-0.23884 h 0.0129 c 0,0 0.29695,0.6778 1.08449,0.6778 0.8521,0 1.46536,-0.67135 1.46536,-1.70419 0,-1.00058 -0.54225,-1.69775 -1.41371,-1.69775 -0.83274,0 -1.11677,0.6649 -1.11677,0.6649 h -0.0129 c 0,0 0.0258,-0.1162 0.0258,-0.26467 v -1.45244 c 0,-0.10329 -0.0581,-0.16138 -0.16138,-0.16138 h -0.12265 c -0.10329,0 -0.15493,0.0581 -0.15493,0.16138 z m 0.42605,-1.4589 c 0,-0.91665 0.50997,-1.30397 1.05221,-1.30397 0.60035,0 1.0264,0.50997 1.0264,1.30397 0,0.82628 -0.47124,1.30397 -1.05222,1.30397 -0.69071,0 -1.02639,-0.63907 -1.02639,-1.30397 z" />
      <path
         id="path103"
         style="font-style:normal;font-variant:normal;font-weight:normal;font-stretch:normal;font-family:'Museo Sans Rounded';-inkscape-font-specification:'Museo Sans Rounded';fill:#7b7979;fill-opacity:1;stroke-width:0.16138242"
         d="m 130.02711,109.45084 c 0,1.00057 0.72945,1.69774 1.69775,1.69774 0.52288,0 0.91019,-0.23239 1.08449,-0.36149 0.0775,-0.0581 0.0904,-0.13556 0.0452,-0.21303 l -0.0516,-0.0775 c -0.0516,-0.0839 -0.12265,-0.0968 -0.21302,-0.0387 -0.14847,0.11619 -0.44542,0.29694 -0.8521,0.29694 -0.67135,0 -1.23942,-0.47124 -1.25879,-1.29751 h 2.33682 c 0.0968,0 0.16784,-0.071 0.16784,-0.16139 0,-0.9231 -0.4906,-1.54927 -1.35561,-1.54927 -0.87792,0 -1.60092,0.63908 -1.60092,1.7042 z m 0.47124,-0.32276 c 0.10329,-0.65844 0.57452,-1.01994 1.11677,-1.01994 0.48414,0 0.89728,0.33567 0.92311,1.01994 z" />
      <path
         id="path105"
         style="font-style:normal;font-variant:normal;font-weight:normal;font-stretch:normal;font-family:'Museo Sans Rounded';-inkscape-font-specification:'Museo Sans Rounded';fill:#7b7979;fill-opacity:1;stroke-width:0.16138242"
         d="m 133.75777,110.90974 c 0,0.10328 0.0581,0.16138 0.16138,0.16138 h 0.12265 c 0.10329,0 0.15493,-0.0581 0.15493,-0.16138 v -1.2136 c 0,-0.6778 0.32922,-1.4589 1.01348,-1.4589 0.10974,0 0.18075,-0.0581 0.18075,-0.16138 v -0.11619 c 0,-0.10329 -0.0516,-0.15493 -0.16784,-0.15493 -0.51642,0 -0.89083,0.40668 -1.04576,0.87792 h -0.0129 c 0,0 0.0258,-0.1162 0.0258,-0.25821 v -0.43896 c 0,-0.10329 -0.0581,-0.16138 -0.15492,-0.16138 h -0.1162 c -0.10328,0 -0.16138,0.0581 -0.16138,0.16138 z" />
      <path
         id="path107"
         style="font-style:normal;font-variant:normal;font-weight:normal;font-stretch:normal;font-family:'Museo Sans Rounded';-inkscape-font-specification:'Museo Sans Rounded';fill:#7b7979;fill-opacity:1;stroke-width:0.16138242"
         d="m 136.05697,111.93613 -0.0387,0.0904 c -0.0452,0.0968 -0.0194,0.16138 0.0775,0.20657 0.27112,0.12265 0.60034,0.19365 0.93602,0.19365 0.77463,0 1.54281,-0.40022 1.54281,-1.43307 v -3.00817 c 0,-0.10329 -0.0581,-0.16138 -0.16138,-0.16138 h -0.10328 c -0.10329,0 -0.15493,0.0581 -0.15493,0.14201 v 0.26467 c 0,0.0645 0.0129,0.10974 0.0129,0.10974 h -0.0129 c 0,0 -0.21948,-0.59389 -1.05867,-0.59389 -0.90374,0 -1.43308,0.6649 -1.43308,1.62028 0,1.00057 0.57452,1.68484 1.44599,1.68484 0.50997,0 0.83919,-0.23885 1.03285,-0.6068 h 0.0129 c 0,0 -0.0194,0.10974 -0.0194,0.23239 v 0.33567 c 0,0.723 -0.51642,1.01994 -1.11676,1.01994 -0.3615,0 -0.61326,-0.10328 -0.75527,-0.16784 -0.10329,-0.0387 -0.16139,-0.0129 -0.20657,0.071 z m 1.11676,-1.27815 c -0.63907,0 -1.05867,-0.4906 -1.05867,-1.30397 0,-0.74881 0.3615,-1.2136 1.01994,-1.2136 0.54225,0 1.00703,0.29695 1.00703,1.25879 0,0.94247 -0.45187,1.25878 -0.9683,1.25878 z" />
    </g>
  </g>
</svg>
